<svg width="354" height="379" viewBox="0 0 354 379" fill="none" xmlns="http://www.w3.org/2000/svg">
<path d="M31.7076 232.972C31.7076 232.972 32.5653 195.453 16.5284 162.878C0.491536 130.303 40.4874 64.0638 87.7211 60.9316C134.945 57.809 148.428 -9.42263 216.826 1.12086C285.224 11.6644 317.635 62.2134 308.344 105.814C299.054 149.414 303.024 223.411 318.512 256.931C333.99 290.45 344.485 353.615 274.989 345.818C205.492 338.021 152.033 260.497 103.97 256.931C55.9075 253.365 40.5356 267.378 31.7076 232.972Z" fill="url(#paint0_linear)"/>
<path d="M320.92 252.237C320.467 253.606 319.629 255.196 318.511 256.94C310.762 269.007 289.319 288.05 285.001 287.279C284.885 287.26 284.77 287.231 284.664 287.193C281.454 286.142 279.893 278.567 275.18 271.32C274.091 269.643 272.839 267.995 271.354 266.433C269.938 264.949 268.318 263.561 266.439 262.337C265.967 262.019 265.697 261.624 265.61 261.171C265.225 259.224 268.145 256.304 272.154 255.418C277.098 254.319 291.16 245.645 292.258 243.997C292.364 243.853 292.403 243.631 292.412 243.342C292.412 243.053 292.383 242.696 292.297 242.291C291.728 239.313 289.174 233.608 288.027 230.601C287.796 230.003 287.623 229.512 287.536 229.165C287.449 228.837 287.449 228.481 287.536 228.085C288.066 225.435 292.133 221.686 296.489 222.409C296.489 222.409 297 222.958 297.8 223.787C300.016 226.1 304.45 230.62 305.992 231.478C306.069 231.516 306.156 231.574 306.271 231.632C307.823 232.48 312.719 235.208 316.535 239.13C320.005 242.686 322.588 247.235 320.92 252.237Z" fill="url(#paint1_linear)"/>
<path d="M326.366 225.223C325.97 226.611 324.245 227.912 322.183 229.059C319.639 230.466 316.574 231.632 314.81 232.384C314.27 232.615 313.856 232.808 313.615 232.962C314.714 229.502 316.256 229.994 317.403 228.789C318.559 227.584 318.395 226.312 317.567 226.042C316.747 225.763 316.796 226.755 315.919 226.591C315.041 226.428 316.805 224.558 316.911 223.787C316.911 223.787 313.345 225.319 309.278 222.573C307.678 221.493 306.801 220.52 306.329 219.739C305.597 218.534 305.818 217.792 305.818 217.792C305.818 217.792 302.474 218.612 301.645 214.496C301.395 213.234 301.424 211.865 301.799 210.603C302.638 207.731 305.211 205.379 310.049 205.986C317.027 206.863 319.118 213.841 319.118 213.841C319.118 213.841 322.8 212.357 324.775 215.383C326.751 218.4 323.677 221.098 323.677 221.098C323.677 221.098 327.406 221.599 326.366 225.223Z" fill="#333333"/>
<path d="M317.411 228.799C316.264 230.003 314.722 229.512 313.624 232.972C313.489 233.01 313.325 233.049 313.152 233.087C311.667 233.434 308.795 233.868 306.897 232.451C306.213 231.94 305.654 231.198 305.335 230.109C304.709 227.989 305.017 225.213 305.509 222.9C305.769 221.667 306.087 220.568 306.338 219.759C306.81 220.539 307.687 221.503 309.287 222.592C313.354 225.339 316.92 223.806 316.92 223.806C316.92 223.845 316.91 223.883 316.891 223.932V223.941C316.631 224.77 315.108 226.447 315.937 226.601C316.823 226.765 316.766 225.772 317.585 226.052C318.404 226.322 318.568 227.584 317.411 228.799Z" fill="url(#paint2_linear)"/>
<path d="M313.144 233.087C312.797 235.458 313.356 236.74 312.122 238.215C311.881 238.504 311.525 238.716 311.11 238.851C308.98 239.564 305.145 238.456 305.694 237.145C306.05 236.287 306.426 234.919 306.687 233.589C306.764 233.203 306.831 232.818 306.889 232.451C308.787 233.868 311.659 233.434 313.144 233.087Z" fill="url(#paint3_linear)"/>
<path d="M296.479 222.409C292.123 221.696 288.056 225.445 287.526 228.086C287.526 228.086 280.5 219.932 279.623 216.202C278.746 212.463 278.958 185.073 278.958 185.073C278.958 185.073 278.842 174.674 278.303 171.272C279.18 169.181 282.254 175.224 282.909 178.847C283.574 182.481 281.926 185.073 281.926 185.073L288.74 213.34L296.479 222.409Z" fill="url(#paint4_linear)"/>
<path d="M300.199 245.915C300.17 248.7 299.804 253.529 297.847 256.661C277.58 254.194 260.859 244.142 252.204 234.581C245.043 233.916 238.779 230.832 237.131 228.095C238.451 226.842 250.142 228.442 250.807 228.095C251.472 227.748 252.455 225.271 253.283 225.271C254.112 225.271 253.775 229.059 253.775 229.059C253.775 229.059 259.924 233.781 270.188 237.868C270.188 237.868 270.188 237.868 270.197 237.868C270.197 237.868 270.217 237.877 270.226 237.877C272.298 238.706 274.544 239.506 276.944 240.229C283.622 242.262 291.477 243.746 300.141 243.718C300.151 243.727 300.218 244.585 300.199 245.915Z" fill="url(#paint5_linear)"/>
<path d="M284.664 287.193C282.659 292.089 278.139 299.191 268.665 299.914C267.817 299.982 266.969 299.934 266.14 299.789C265.215 299.635 264.3 299.355 263.394 298.979C254.064 295.057 246.383 280.119 243.357 273.478C242.451 271.503 241.969 270.259 241.969 270.259C241.969 270.259 210.705 301.119 204.576 305.013C204.18 305.263 203.891 305.398 203.718 305.417C201.28 305.6 199.159 304.984 199.285 302.892C199.304 302.536 199.391 302.131 199.545 301.688C200.643 298.613 223.494 245.886 239.088 244.893C252.204 244.065 262.054 256.295 265.321 260.786C265.321 260.786 265.321 260.786 265.321 260.795C265.427 260.94 265.524 261.065 265.61 261.191C266.063 261.817 266.343 262.231 266.439 262.357C268.318 263.581 269.938 264.968 271.354 266.453C272.838 268.004 274.091 269.662 275.18 271.339C279.893 278.577 281.454 286.142 284.664 287.193Z" fill="url(#paint6_linear)"/>
<path d="M263.395 298.979C253.951 308.164 235.128 318.813 235.128 318.813C235.128 318.813 211.025 353.345 204.972 359.754C204.336 360.428 203.903 360.785 203.71 360.775C203.151 360.708 202.573 360.823 201.994 360.987C200.51 361.373 198.978 362.038 197.561 360.775C195.585 359.021 213.598 319.69 216.672 312.443C218.764 307.518 231.505 289.698 239.465 278.789C240.969 276.726 242.299 274.914 243.359 273.478C246.385 280.119 254.066 295.047 263.395 298.979Z" fill="url(#paint7_linear)"/>
<path d="M207.062 372.572C202.378 371.637 184.819 379 181.85 379C178.891 379 175.923 376.147 181.85 372.9C187.777 369.652 197.559 360.756 197.559 360.756C198.976 362.019 200.518 361.354 201.993 360.968C202.571 360.814 203.149 360.698 203.708 360.756C203.901 360.775 204.335 360.409 204.971 359.735C205.327 363.638 209.529 373.063 207.062 372.572Z" fill="#022E31"/>
<path d="M206.07 311.778C205.579 314.746 181.687 322.649 183.99 317.233C186.294 311.807 199.256 302.883 199.256 302.883H199.266C199.141 304.984 201.261 305.6 203.699 305.408C203.873 305.398 204.162 305.253 204.557 305.003C204.836 307.171 206.484 309.301 206.07 311.778Z" fill="#022E31"/>
<path d="M278.679 121.176V216.106C278.679 222.881 273.196 228.365 266.42 228.365H67.9542C61.179 228.365 55.6855 222.881 55.6855 216.106V121.176C55.6855 114.41 61.179 108.917 67.9542 108.917H266.42C273.196 108.917 278.679 114.41 278.679 121.176Z" fill="white"/>
<path d="M103.367 181L88.3555 160.627C88.0508 160.217 87.7812 159.807 87.5469 159.396L87.3184 159.045H87.248C87.2715 159.35 87.2832 159.719 87.2832 160.152V181H85.543V155.793H86.8789L101.785 175.99C102.113 176.436 102.471 176.975 102.857 177.607H102.945C102.887 176.787 102.857 176.084 102.857 175.498V155.793H104.598V181H103.367ZM117.939 181.439C115.314 181.439 113.234 180.578 111.699 178.855C110.176 177.121 109.414 174.871 109.414 172.105C109.414 169.117 110.211 166.779 111.805 165.092C113.41 163.404 115.52 162.561 118.133 162.561C120.699 162.561 122.727 163.398 124.215 165.074C125.703 166.75 126.447 169.07 126.447 172.035C126.447 174.836 125.686 177.104 124.162 178.838C122.65 180.572 120.576 181.439 117.939 181.439ZM118.062 164.037C115.941 164.037 114.248 164.752 112.982 166.182C111.729 167.611 111.102 169.598 111.102 172.141C111.102 174.496 111.717 176.389 112.947 177.818C114.178 179.248 115.859 179.963 117.992 179.963C120.16 179.963 121.83 179.26 123.002 177.854C124.174 176.447 124.76 174.496 124.76 172C124.76 169.434 124.174 167.465 123.002 166.094C121.842 164.723 120.195 164.037 118.062 164.037ZM141.6 158.465C141.248 158.465 140.938 158.336 140.668 158.078C140.398 157.82 140.264 157.492 140.264 157.094C140.264 156.707 140.398 156.396 140.668 156.162C140.949 155.916 141.26 155.793 141.6 155.793C141.963 155.793 142.279 155.91 142.549 156.145C142.83 156.379 142.971 156.695 142.971 157.094C142.971 157.469 142.836 157.791 142.566 158.061C142.297 158.33 141.975 158.465 141.6 158.465ZM140.809 181V163H142.426V181H140.809ZM155.311 180.754C154.467 181.152 153.676 181.352 152.938 181.352C150.277 181.352 148.947 179.758 148.947 176.57V164.477H145.713V163H148.947V158.324C149.205 158.23 149.475 158.137 149.756 158.043C150.037 157.961 150.307 157.873 150.564 157.779V163H155.311V164.477H150.564V176.359C150.564 177.602 150.758 178.504 151.145 179.066C151.543 179.617 152.211 179.893 153.148 179.893C153.816 179.893 154.537 179.676 155.311 179.242V180.754ZM159.266 172.07C159.266 174.543 159.834 176.477 160.971 177.871C162.119 179.266 163.689 179.963 165.682 179.963C167.697 179.963 169.666 179.219 171.588 177.73V179.453C169.725 180.777 167.645 181.439 165.348 181.439C163.027 181.439 161.152 180.607 159.723 178.943C158.293 177.279 157.578 174.93 157.578 171.895C157.578 169.27 158.322 167.061 159.811 165.268C161.311 163.463 163.256 162.561 165.646 162.561C167.885 162.561 169.602 163.346 170.797 164.916C171.992 166.486 172.59 168.631 172.59 171.35V172.07H159.266ZM170.902 170.594C170.832 168.52 170.334 166.908 169.408 165.76C168.482 164.611 167.205 164.037 165.576 164.037C163.889 164.037 162.488 164.605 161.375 165.742C160.273 166.867 159.594 168.484 159.336 170.594H170.902ZM199.625 181V170.172C199.625 167.91 199.268 166.322 198.553 165.408C197.85 164.494 196.73 164.037 195.195 164.037C193.777 164.037 192.553 164.646 191.521 165.865C190.49 167.084 189.975 168.613 189.975 170.453V181H188.357V170.049C188.357 166.041 186.834 164.037 183.787 164.037C182.322 164.037 181.104 164.652 180.131 165.883C179.158 167.102 178.672 168.684 178.672 170.629V181H177.055V163H178.672V165.988H178.742C179.996 163.703 181.83 162.561 184.244 162.561C185.557 162.561 186.676 162.941 187.602 163.703C188.539 164.453 189.172 165.443 189.5 166.674C190.062 165.373 190.865 164.365 191.908 163.65C192.963 162.924 194.105 162.561 195.336 162.561C199.273 162.561 201.242 164.998 201.242 169.873V181H199.625ZM205.725 180.209V178.258C206.334 178.785 207.072 179.201 207.939 179.506C208.807 179.811 209.557 179.963 210.189 179.963C213.014 179.963 214.426 178.809 214.426 176.5C214.426 175.703 214.115 175.023 213.494 174.461C212.873 173.898 211.865 173.318 210.471 172.721C208.748 171.971 207.535 171.197 206.832 170.4C206.141 169.592 205.795 168.613 205.795 167.465C205.795 166 206.352 164.816 207.465 163.914C208.59 163.012 209.973 162.561 211.613 162.561C213.16 162.561 214.484 162.877 215.586 163.51V165.338C214.25 164.471 212.867 164.037 211.438 164.037C210.254 164.037 209.299 164.348 208.572 164.969C207.846 165.578 207.482 166.375 207.482 167.359C207.482 168.215 207.711 168.912 208.168 169.451C208.625 169.979 209.633 170.588 211.191 171.279C213.066 172.123 214.355 172.908 215.059 173.635C215.762 174.35 216.113 175.305 216.113 176.5C216.113 177.93 215.574 179.113 214.496 180.051C213.43 180.977 211.953 181.439 210.066 181.439C208.332 181.439 206.885 181.029 205.725 180.209ZM231.635 181.316C231.236 181.316 230.902 181.182 230.633 180.912C230.363 180.631 230.229 180.291 230.229 179.893C230.229 179.482 230.363 179.148 230.633 178.891C230.902 178.621 231.236 178.486 231.635 178.486C232.033 178.486 232.373 178.621 232.654 178.891C232.936 179.148 233.076 179.482 233.076 179.893C233.076 180.291 232.936 180.631 232.654 180.912C232.373 181.182 232.033 181.316 231.635 181.316ZM239.65 181.316C239.252 181.316 238.918 181.182 238.648 180.912C238.379 180.631 238.244 180.291 238.244 179.893C238.244 179.482 238.379 179.148 238.648 178.891C238.918 178.621 239.252 178.486 239.65 178.486C240.049 178.486 240.389 178.621 240.67 178.891C240.951 179.148 241.092 179.482 241.092 179.893C241.092 180.291 240.951 180.631 240.67 180.912C240.389 181.182 240.049 181.316 239.65 181.316ZM247.666 181.316C247.268 181.316 246.934 181.182 246.664 180.912C246.395 180.631 246.26 180.291 246.26 179.893C246.26 179.482 246.395 179.148 246.664 178.891C246.934 178.621 247.268 178.486 247.666 178.486C248.064 178.486 248.404 178.621 248.686 178.891C248.967 179.148 249.107 179.482 249.107 179.893C249.107 180.291 248.967 180.631 248.686 180.912C248.404 181.182 248.064 181.316 247.666 181.316Z" fill="#3EC200"/>
<path d="M285.696 105.939C285.224 105.467 285.224 104.706 285.696 104.233L293.348 96.5812C293.82 96.109 294.582 96.109 295.054 96.5812C295.526 97.0535 295.526 97.8148 295.054 98.2871L287.402 105.939C286.939 106.412 286.168 106.412 285.696 105.939Z" fill="#12C68A"/>
<path d="M285.696 96.5712C286.168 96.099 286.93 96.099 287.402 96.5712L295.054 104.223C295.526 104.696 295.526 105.457 295.054 105.929C294.582 106.402 293.82 106.402 293.348 105.929L285.696 98.2771C285.224 97.8145 285.224 97.0435 285.696 96.5712Z" fill="#12C68A"/>
<path d="M42.8001 240.123C43.2724 240.595 43.2724 241.356 42.8001 241.829L35.1479 249.481C34.6757 249.953 33.9143 249.953 33.4421 249.481C32.9698 249.009 32.9698 248.247 33.4421 247.775L41.0943 240.123C41.5569 239.65 42.3279 239.65 42.8001 240.123Z" fill="#12C68A"/>
<path d="M42.8001 249.481C42.3279 249.953 41.5665 249.953 41.0943 249.481L33.4421 241.829C32.9698 241.356 32.9698 240.595 33.4421 240.123C33.9143 239.65 34.6757 239.65 35.1479 240.123L42.8001 247.775C43.2724 248.247 43.2724 249.009 42.8001 249.481Z" fill="#12C68A"/>
<path d="M205.107 130.225C200.048 135.285 191.75 134.986 187.066 129.57L154.809 92.2534C151.812 88.7838 152.004 83.5988 155.243 80.3606C158.481 77.1224 163.676 76.9296 167.135 79.9269L204.452 112.184C209.868 116.868 210.177 125.166 205.107 130.225Z" fill="url(#paint8_linear)"/>
<path d="M197.272 263.484C192.212 268.544 183.914 268.245 179.23 262.829L146.973 225.512C143.976 222.042 144.169 216.857 147.407 213.619C150.645 210.381 155.84 210.188 159.3 213.185L196.616 245.442C202.032 250.126 202.331 258.424 197.272 263.484Z" fill="url(#paint9_linear)"/>
<path d="M144.179 77.5176C148.086 77.5176 151.253 74.3504 151.253 70.4436C151.253 66.5367 148.086 63.3696 144.179 63.3696C140.273 63.3696 137.105 66.5367 137.105 70.4436C137.105 74.3504 140.273 77.5176 144.179 77.5176Z" fill="#9FE1CB"/>
<path d="M111.883 35.1123C115.789 35.1123 118.957 31.9452 118.957 28.0383C118.957 24.1315 115.789 20.9644 111.883 20.9644C107.976 20.9644 104.809 24.1315 104.809 28.0383C104.809 31.9452 107.976 35.1123 111.883 35.1123Z" fill="#9FE1CB"/>
<path d="M346.654 279.058C350.561 279.058 353.728 275.891 353.728 271.984C353.728 268.078 350.561 264.91 346.654 264.91C342.747 264.91 339.58 268.078 339.58 271.984C339.58 275.891 342.747 279.058 346.654 279.058Z" fill="#9FE1CB"/>
<path d="M161 272C161 273.655 159.655 275 158 275C156.345 275 155 273.655 155 272C155 270.345 156.345 269 158 269C159.655 269 161 270.341 161 272Z" fill="#12C68A"/>
<path d="M97.0317 294.498C92.8586 298.671 86.0159 298.42 82.1513 293.958L55.5516 263.185C53.0844 260.323 53.2386 256.044 55.9082 253.374C58.5778 250.705 62.8569 250.55 65.7192 253.018L96.492 279.617C100.954 283.482 101.205 290.315 97.0317 294.498Z" fill="url(#paint10_linear)" fill-opacity="0.5"/>
<path d="M338.635 91.0873C334.462 95.2604 327.619 95.0098 323.755 90.5476L297.155 59.7749C294.688 56.9125 294.842 52.6335 297.512 49.9639C300.181 47.2942 304.46 47.1401 307.323 49.6073L338.095 76.2069C342.558 80.0716 342.808 86.9143 338.635 91.0873Z" fill="url(#paint11_linear)" fill-opacity="0.5"/>
<path d="M69.9197 77.7971C69.2258 80.0812 65.5828 85.6132 62.6337 89.8634C60.4845 92.957 58.7112 95.3761 58.7112 95.3761C58.7112 95.3761 48.7171 96.6964 48.8231 96.0314C48.9388 95.376 62.0073 72.5254 62.0073 72.5254L62.0651 72.5639C62.5566 72.8434 64.4359 73.8072 66.5466 75.2143C67.6645 75.966 68.8499 76.843 69.9197 77.7971Z" fill="url(#paint12_linear)"/>
<path d="M52.7856 133.599C52.7856 133.599 52.0628 134.977 50.8389 137.328C49.4703 139.95 47.4657 143.786 45.1334 148.238C38.9943 159.957 30.5807 175.994 25.4632 185.651C23.5742 189.198 22.1382 191.896 21.4154 193.188C21.1648 193.641 21.001 193.93 20.9335 194.016C20.5962 194.479 20.095 194.701 19.5361 194.73C18.2446 194.797 16.693 193.804 16.5388 192.262C16.3942 190.749 25.6848 152.508 31.4963 128.838C32.701 123.903 33.7611 119.605 34.5514 116.405C35.4766 112.656 36.0259 110.411 36.0259 110.411C36.6042 111.297 37.4137 112.473 38.3582 113.822C40.8254 117.33 44.2371 122.024 47.1284 125.966C50.2606 130.225 52.7856 133.599 52.7856 133.599Z" fill="url(#paint13_linear)"/>
<path d="M56.6203 115.702C56.1673 118.352 57.0058 154.233 55.4831 165.258C55.1747 167.484 54.7699 168.699 54.2398 168.419C54.1724 168.39 54.1049 168.332 54.0278 168.255C52.6014 166.945 48.6018 159.283 44.3806 149.616C40.3135 140.306 36.0248 129.165 33.6251 120.048C31.7361 112.897 31.0133 107.009 32.4493 104.262C35.3406 98.7107 48.2163 93.5643 59.2224 90.0562C60.6392 89.6033 62.0173 89.1792 63.3473 88.7841C67.7517 87.4733 71.5392 86.5 73.8041 85.941C75.1533 85.6037 75.9532 85.4206 76.0207 85.4013C76.0207 85.4013 88.6074 79.7729 95.9994 85.0736C98.6015 86.9433 100.558 90.1622 101.107 95.4629C103.208 115.846 57.1696 112.512 56.6203 115.702Z" fill="url(#paint14_linear)"/>
<path d="M103.97 70.4436C103.941 70.6171 103.884 70.7906 103.816 70.9641V70.9737C103.797 71.0315 103.768 71.0893 103.739 71.1375C103.72 71.1761 103.7 71.2243 103.672 71.2628C103.556 71.4941 103.402 71.7158 103.228 71.9471C103.19 72.0049 103.142 72.0531 103.103 72.1109C102.775 72.4964 102.38 72.8819 101.927 73.2482C101.86 73.306 101.792 73.3638 101.715 73.412C101.638 73.4795 101.551 73.5373 101.465 73.6047C101.185 73.8168 100.896 74.0192 100.588 74.2119C100.453 74.3083 100.298 74.395 100.154 74.4818C100.144 74.4914 100.125 74.501 100.115 74.501C100.057 74.53 99.9997 74.5685 99.9515 74.5974C99.8744 74.6456 99.7973 74.6938 99.7202 74.742C99.6623 74.7709 99.6045 74.8094 99.5467 74.8383C99.3829 74.9347 99.2094 75.0311 99.0455 75.1178C99.0166 75.1371 98.9974 75.1468 98.9684 75.1564C98.7757 75.2624 98.5829 75.3684 98.3902 75.4648C98.0047 75.6672 97.6192 75.8503 97.2529 76.0334C97.0698 76.1201 96.8867 76.2069 96.7036 76.284C96.5398 76.3611 96.3759 76.4286 96.2217 76.5057C96.1543 76.5346 96.0868 76.5635 96.0193 76.5924C95.8941 76.6502 95.7688 76.6984 95.6435 76.7562C95.4604 76.8333 95.2869 76.9104 95.1134 76.9779C95.0363 77.0068 94.9592 77.0357 94.8918 77.0646C94.14 77.373 93.6389 77.5465 93.5521 77.5754C93.5425 77.5754 93.5425 77.5754 93.5425 77.5754C93.5425 77.5754 93.822 78.2982 94.1978 79.3198C94.2268 79.4066 94.2653 79.4933 94.2942 79.58C94.5544 80.2932 94.8532 81.1317 95.1231 81.9701C95.1616 82.0762 95.1905 82.1822 95.2291 82.2882C95.2965 82.5002 95.364 82.7026 95.4314 82.905C95.4796 83.0688 95.5375 83.2423 95.5857 83.3965C95.5953 83.4351 95.6049 83.464 95.6146 83.5025C95.6917 83.7724 95.7688 84.0326 95.8362 84.2735C95.8652 84.3892 95.8941 84.5048 95.923 84.6108C95.9808 84.8518 96.0386 85.0638 96.0675 85.2662C96.5012 87.531 97.0313 93.6894 96.8482 94.6628L96.8385 94.711C96.6169 95.482 84.6663 83.888 76.7057 85.3722C76.4455 85.4204 76.2334 85.43 76.06 85.4108C75.1251 85.324 75.26 84.3699 75.6359 83.1748C76.0021 82.0183 76.5997 80.6305 76.7153 79.5511C76.9659 77.1321 73.5735 70.1063 73.5735 70.1063C73.5735 70.1063 72.3302 73.1614 71.2219 75.4648C70.7207 76.5153 70.2485 77.4116 69.9401 77.7971C68.8703 76.8333 67.6849 75.9659 66.567 75.2142C64.4563 73.8071 62.577 72.8337 62.0855 72.5639L62.0277 72.5253C61.8735 72.4386 62.0951 71.1954 62.5096 69.3642C63.6179 64.5165 66.0754 55.515 66.6344 52.6431C67.4054 48.6917 70.6822 40.3455 78.4404 38.3698C83.4327 37.0977 89.7838 38.312 96.0868 49.7421C98.5155 54.1561 100.944 60.0833 103.276 67.9668C103.498 68.7763 103.739 69.6052 103.97 70.4436Z" fill="url(#paint15_linear)"/>
<path d="M73.6318 41.8296C73.6318 41.8296 72.8897 48.0362 76.0701 48.4795C79.2601 48.9228 80.2431 41.7043 79.6938 40.0081C79.1445 38.3215 78.2 37.8782 76.6965 38.7552C75.1931 39.6322 73.6992 40.8947 73.6318 41.8296Z" fill="#2B8ACF"/>
<path d="M73.4276 36.5774C73.6975 37.493 72.9457 40.1337 71.6736 41.8588C70.8255 43.0057 69.7461 43.7478 68.5992 43.2852C64.3394 41.5793 61.6987 38.3411 60.2338 35.9221C59.164 34.1584 58.7207 32.8284 58.7207 32.8284C59.1929 32.9633 59.6748 33.0115 60.1663 32.9922C63.0383 32.8862 65.9103 30.4479 66.7584 30.5154C67.115 30.5443 67.6065 30.9298 68.1173 31.3731C69.0136 32.1634 69.987 33.1561 70.4303 32.7417C71.1243 32.0767 69.9388 30.9684 70.7195 29.86C71.5001 28.7421 73.1096 28.5879 73.524 30.1877C73.9384 31.7972 73.2349 31.431 73.0325 32.9055C72.965 33.4067 72.9361 33.8211 72.9458 34.2066C72.9458 34.3029 72.9554 34.3897 72.965 34.4861C72.9939 35.1029 73.1674 35.7004 73.4276 36.5774Z" fill="url(#paint16_linear)"/>
<path d="M75.8758 45.5306C74.806 45.5306 75.4325 45.7523 74.6133 44.4319C74.2181 43.8055 73.3315 43.0537 72.5123 42.4466C72.2135 42.2249 71.9244 42.0225 71.6738 41.8587C72.946 40.1432 73.7074 37.4929 73.4279 36.5773C73.1677 35.7003 72.9942 35.1027 72.9363 34.4763V34.457C73.2737 35.334 73.7074 35.9894 74.1892 36.5002C74.8928 37.2519 75.683 37.7145 76.3962 38.1193C77.2347 38.6012 77.9479 39.0252 78.2563 39.7673C79.008 41.5792 76.9456 45.5306 75.8758 45.5306Z" fill="url(#paint17_linear)"/>
<path d="M77.5256 29.6286C77.198 30.1105 76.9088 30.5828 76.6486 31.0261C74.7597 34.2161 74.2103 36.4906 74.2103 36.4906C73.7284 35.9798 73.2851 35.3244 72.9574 34.4474V34.4667C72.9478 34.3703 72.9478 34.2836 72.9382 34.1872C72.9285 33.8017 72.9478 33.3873 73.0249 32.8861C73.2273 31.4116 73.9308 31.7778 73.5164 30.1684C73.102 28.5685 71.4925 28.7227 70.7119 29.8407C69.9312 30.9586 71.1263 32.0669 70.4227 32.7223C69.7192 33.3777 67.7435 30.5731 66.7508 30.496C65.9124 30.4286 63.0404 32.8669 60.1588 32.9729C59.6769 32.9922 59.1854 32.944 58.7131 32.809C50.8778 31.9031 50.579 25.3496 53.0655 19.808C55.0894 15.2783 58.9733 11.4233 62.1152 11.8281C61.3731 13.8038 61.6237 15.9433 63.5897 17.8419C65.5654 19.7309 77.516 17.8419 75.8583 25.9953C77.2558 25.5134 78.846 27.6529 77.5256 29.6286Z" fill="#333333"/>
<path d="M108.5 110.372C107.98 110.43 106.573 110.411 104.925 110.276C101.899 110.025 98.0821 109.408 97.5424 108.233C96.7232 106.421 96.8003 101.554 96.8293 99.9154C96.8582 98.2674 96.8293 94.7207 96.8293 94.7207L96.8389 94.6726C97.022 93.7088 96.4919 87.5408 96.0583 85.2759C96.0197 85.0735 95.9715 84.8615 95.9137 84.6206C95.8944 84.5049 95.8559 84.3989 95.8269 84.2833C95.7595 84.0423 95.692 83.7821 95.6053 83.5123C95.5957 83.4737 95.586 83.4448 95.5764 83.4062C95.5282 83.2424 95.48 83.0786 95.4222 82.9147C95.3547 82.7123 95.2969 82.51 95.2198 82.2979C95.1909 82.1919 95.1523 82.0859 95.1138 81.9799C94.8343 81.1511 94.5452 80.3126 94.2849 79.5898C94.256 79.4934 94.2175 79.4067 94.1886 79.3296C93.8127 78.308 93.5332 77.5852 93.5332 77.5852C93.5332 77.5852 93.5332 77.5852 93.5429 77.5852C93.6296 77.5562 94.1307 77.3731 94.8825 77.0744C94.9499 77.0455 95.027 77.0165 95.1041 76.9876C95.268 76.9202 95.4414 76.8527 95.6342 76.766C95.7595 76.7178 95.8848 76.6599 96.0101 76.6021C96.0775 76.5732 96.145 76.5443 96.2125 76.5154C96.3667 76.4479 96.5305 76.3805 96.6943 76.2937C96.8775 76.2166 97.0606 76.1299 97.2437 76.0431C97.6195 75.8697 97.9954 75.6866 98.3809 75.4745C98.5737 75.3782 98.7664 75.2721 98.9592 75.1661C98.9881 75.1565 99.0073 75.1469 99.0363 75.1276C99.2001 75.0408 99.3736 74.9445 99.5374 74.8481C99.5952 74.8192 99.6531 74.7806 99.7109 74.7517C99.788 74.7035 99.8651 74.6553 99.9422 74.6168C100 74.5879 100.058 74.5493 100.106 74.5108C100.116 74.5108 100.135 74.5011 100.145 74.4915C100.289 74.4048 100.434 74.3084 100.578 74.2216C100.877 74.0289 101.176 73.8265 101.455 73.6145C101.542 73.5567 101.619 73.4892 101.706 73.4217C101.773 73.3639 101.85 73.3061 101.918 73.2579C102.371 72.8917 102.766 72.5158 103.094 72.1207C103.142 72.0628 103.18 72.0147 103.219 71.9568C103.392 71.7352 103.547 71.5039 103.662 71.2726C103.682 71.234 103.71 71.1858 103.73 71.1473C103.759 71.0894 103.778 71.0316 103.807 70.9834V70.9738C103.874 70.8003 103.923 70.6268 103.961 70.4534C107.585 81.6715 101.822 97.2843 102.65 100.908C103.489 104.522 109.985 110.208 108.5 110.372Z" fill="url(#paint18_linear)"/>
<path d="M103.971 70.4436C103.942 70.6171 103.884 70.7906 103.816 70.964L103.971 70.4436Z" fill="url(#paint19_linear)"/>
<path d="M22.8988 202.478C19.198 204.531 0 211.374 0 208.078C0 204.782 16.5284 192.262 16.5284 192.262C16.7501 194.46 19.8245 195.559 20.9231 194.016C20.9906 193.93 21.1544 193.65 21.405 193.188C22.0604 196.754 24.383 201.649 22.8988 202.478Z" fill="#022E31"/>
<path d="M61.9603 175.291C61.305 175.956 61.623 176.11 58.4908 178.423C56.2935 180.042 45.3066 188.966 45.3066 185.506C45.3066 182.047 54.2503 168.429 54.2503 168.429C54.7804 168.708 55.1755 167.494 55.4936 165.268C56.12 169.238 62.6157 174.626 61.9603 175.291Z" fill="#022E31"/>
<path d="M71.2025 75.4744C70.7014 76.5249 70.2291 77.4211 69.9207 77.8066C66.8367 75.0407 62.8178 72.9975 62.0757 72.5735L62.0179 72.5349C61.8637 72.4482 62.0854 71.2049 62.4998 69.3738C64.6586 70.3761 69.593 72.8819 71.2025 75.4744Z" fill="#21AEB7"/>
<path d="M103.97 70.4438C103.941 70.6173 103.883 70.7907 103.816 70.9642V70.9738C102.399 74.4916 93.5422 77.5756 93.5422 77.5756C93.5422 77.5756 92.7712 75.5999 92.8772 74.7229C92.9832 73.9229 100.375 71.475 103.266 67.9766C103.498 68.7765 103.739 69.6053 103.97 70.4438Z" fill="#21AEB7"/>
<defs>
<linearGradient id="paint0_linear" x1="196.127" y1="354.654" x2="154.605" y2="70.9189" gradientUnits="userSpaceOnUse">
<stop stop-color="#9FE1CB"/>
<stop offset="0.9944" stop-color="#EFFFFA"/>
</linearGradient>
<linearGradient id="paint1_linear" x1="289.723" y1="219.029" x2="296.973" y2="287.573" gradientUnits="userSpaceOnUse">
<stop stop-color="#97FFB4"/>
<stop offset="1" stop-color="#3793FF"/>
</linearGradient>
<linearGradient id="paint2_linear" x1="307.479" y1="228.122" x2="321.402" y2="218.319" gradientUnits="userSpaceOnUse">
<stop stop-color="#FFB9A1"/>
<stop offset="1" stop-color="#F97362"/>
</linearGradient>
<linearGradient id="paint3_linear" x1="306.615" y1="237.67" x2="316.503" y2="229.76" gradientUnits="userSpaceOnUse">
<stop stop-color="#FFB9A1"/>
<stop offset="1" stop-color="#F97362"/>
</linearGradient>
<linearGradient id="paint4_linear" x1="286.949" y1="172.73" x2="324.161" y2="210.142" gradientUnits="userSpaceOnUse">
<stop stop-color="#FF9330"/>
<stop offset="1" stop-color="#FFC794"/>
</linearGradient>
<linearGradient id="paint5_linear" x1="267.134" y1="226.306" x2="273.394" y2="266.133" gradientUnits="userSpaceOnUse">
<stop stop-color="#FF9330"/>
<stop offset="1" stop-color="#FFC794"/>
</linearGradient>
<linearGradient id="paint6_linear" x1="199.278" y1="275.145" x2="284.665" y2="275.145" gradientUnits="userSpaceOnUse">
<stop stop-color="#12C68A"/>
<stop offset="1" stop-color="#06858C"/>
</linearGradient>
<linearGradient id="paint7_linear" x1="197.409" y1="317.486" x2="263.397" y2="317.486" gradientUnits="userSpaceOnUse">
<stop stop-color="#12C68A"/>
<stop offset="1" stop-color="#06858C"/>
</linearGradient>
<linearGradient id="paint8_linear" x1="162.706" y1="79.3377" x2="204.556" y2="135.362" gradientUnits="userSpaceOnUse">
<stop stop-color="#97E6FF"/>
<stop offset="1" stop-color="#12E2A4"/>
</linearGradient>
<linearGradient id="paint9_linear" x1="154.869" y1="212.596" x2="196.721" y2="268.618" gradientUnits="userSpaceOnUse">
<stop stop-color="#97E6FF"/>
<stop offset="1" stop-color="#12E2A4"/>
</linearGradient>
<linearGradient id="paint10_linear" x1="62.0643" y1="252.533" x2="96.5765" y2="298.731" gradientUnits="userSpaceOnUse">
<stop stop-color="#97E6FF"/>
<stop offset="1" stop-color="#12E2A4"/>
</linearGradient>
<linearGradient id="paint11_linear" x1="303.668" y1="49.1229" x2="338.18" y2="95.3202" gradientUnits="userSpaceOnUse">
<stop stop-color="#97E6FF"/>
<stop offset="1" stop-color="#12E2A4"/>
</linearGradient>
<linearGradient id="paint12_linear" x1="58.8584" y1="73.3062" x2="68.5634" y2="100.669" gradientUnits="userSpaceOnUse">
<stop stop-color="#FF9330"/>
<stop offset="1" stop-color="#FFC794"/>
</linearGradient>
<linearGradient id="paint13_linear" x1="18.1234" y1="176.562" x2="35.4244" y2="140.642" gradientUnits="userSpaceOnUse">
<stop stop-color="#12C68A"/>
<stop offset="1" stop-color="#19A576"/>
</linearGradient>
<linearGradient id="paint14_linear" x1="34.7322" y1="150" x2="45.5049" y2="107.795" gradientUnits="userSpaceOnUse">
<stop stop-color="#12C68A"/>
<stop offset="1" stop-color="#35BD90"/>
</linearGradient>
<linearGradient id="paint15_linear" x1="71.0479" y1="34.4352" x2="86.371" y2="81.7226" gradientUnits="userSpaceOnUse">
<stop stop-color="#6EA8FF"/>
<stop offset="1" stop-color="#5AF3CF"/>
</linearGradient>
<linearGradient id="paint16_linear" x1="61.6639" y1="39.1452" x2="79.3789" y2="31.9769" gradientUnits="userSpaceOnUse">
<stop stop-color="#FFB9A1"/>
<stop offset="1" stop-color="#F97362"/>
</linearGradient>
<linearGradient id="paint17_linear" x1="77.9083" y1="51.4233" x2="73.4574" y2="35.3077" gradientUnits="userSpaceOnUse">
<stop stop-color="#FFB9A1"/>
<stop offset="1" stop-color="#F97362"/>
</linearGradient>
<linearGradient id="paint18_linear" x1="100.758" y1="71.77" x2="126.288" y2="102.5" gradientUnits="userSpaceOnUse">
<stop stop-color="#FF9330"/>
<stop offset="1" stop-color="#FFC794"/>
</linearGradient>
<linearGradient id="paint19_linear" x1="103.811" y1="70.4458" x2="103.928" y2="70.8044" gradientUnits="userSpaceOnUse">
<stop stop-color="#FF716E"/>
<stop offset="1" stop-color="#EF5C54"/>
</linearGradient>
</defs>
</svg>
